<?xml version="1.0" standalone="no"?>
<!DOCTYPE svg PUBLIC "-//W3C//DTD SVG 20010904//EN"
 "http://www.w3.org/TR/2001/REC-SVG-20010904/DTD/svg10.dtd">
<svg version="1.0" xmlns="http://www.w3.org/2000/svg"
 width="250.000000pt" height="250.000000pt" viewBox="0 0 250.000000 250.000000"
 preserveAspectRatio="xMidYMid meet">
<metadata>
Created by potrace 1.14, written by Peter Selinger 2001-2017
</metadata>
<g transform="translate(0.000000,250.000000) scale(0.100000,-0.100000)"
fill="#000000" stroke="none">
<path d="M1212 2202 c-28 -25 -131 -116 -172 -152 -24 -21 -169 -151 -196
-175 -12 -11 -53 -47 -90 -80 -37 -33 -79 -70 -93 -83 -14 -13 -39 -35 -56
-50 -16 -15 -66 -59 -110 -97 -44 -39 -87 -77 -95 -85 -8 -8 -49 -44 -90 -80
-41 -36 -77 -68 -80 -71 -3 -3 -28 -26 -57 -52 l-52 -45 20 -24 c12 -13 30
-35 42 -50 12 -15 26 -28 30 -28 11 0 48 29 100 76 l37 35 1 -28 c0 -15 1
-236 1 -490 l1 -463 528 0 529 0 1 43 c0 23 1 191 1 374 l0 331 229 0 228 0 0
-361 c0 -199 0 -368 0 -375 1 -10 29 -12 124 -10 l122 3 1 482 c0 266 3 484 6
485 3 2 38 -23 78 -54 l72 -57 26 32 c15 17 35 42 46 53 10 12 18 25 18 29 0
4 -33 36 -74 72 -101 91 -215 191 -262 233 -22 19 -55 48 -73 64 l-33 29 0
189 c0 188 0 188 23 189 12 1 25 1 28 1 10 -2 17 56 9 69 -5 7 -60 11 -171 11
-266 -1 -235 4 -237 -43 -2 -41 -2 -41 31 -37 l32 3 0 -66 c0 -62 -1 -66 -16
-51 -17 18 -35 34 -139 122 -35 30 -71 62 -80 71 -8 9 -47 43 -86 77 l-71 61
-31 -27z m60 -214 c14 -13 49 -43 79 -68 29 -25 63 -54 75 -65 12 -11 41 -36
65 -57 24 -20 55 -46 69 -58 14 -12 50 -43 80 -69 30 -27 114 -99 186 -162 71
-63 145 -127 163 -142 19 -15 32 -30 30 -32 -2 -2 -31 20 -65 48 -33 29 -145
122 -248 207 -103 85 -198 163 -209 173 -74 63 -120 102 -180 151 l-68 55 -77
-62 c-42 -34 -79 -64 -82 -67 -3 -3 -27 -24 -55 -45 -27 -22 -52 -43 -55 -46
-3 -3 -93 -77 -200 -164 -107 -87 -228 -185 -267 -217 -163 -132 -32 -12 197
181 29 25 58 50 64 56 6 5 72 62 146 125 74 63 140 119 146 125 6 5 35 30 64
55 30 25 68 57 85 72 16 15 30 28 31 28 1 0 12 -10 26 -22z m788 -683 c13 -14
21 -25 18 -25 -2 0 -15 11 -28 25 -13 14 -21 25 -18 25 2 0 15 -11 28 -25z
m-1630 2 c0 -2 -10 -12 -22 -23 l-23 -19 19 23 c18 21 26 27 26 19z"/>
</g>
</svg>
